<svg width="98" height="71" viewBox="0 0 98 71" fill="none" xmlns="http://www.w3.org/2000/svg">
<g style="mix-blend-mode:screen">
<path d="M3.0002 31.41L3.0902 32.15C3.27703 33.577 3.64325 34.9748 4.1802 36.31C2.63317 38.7383 1.61127 41.4633 1.1802 44.31C1.1002 44.81 1.0502 45.31 1.0102 45.81C1.0102 46.32 0.950199 46.81 0.950199 47.35C0.947553 51.6647 2.28608 55.8734 4.78054 59.3939C7.275 62.9144 10.802 65.5724 14.8736 67.0003C18.9451 68.4281 23.3598 68.5551 27.5066 67.3637C31.6535 66.1722 35.3275 63.7213 38.0202 60.35C38.9965 62.014 40.2991 63.4634 41.8498 64.6111C43.4005 65.7588 45.1673 66.5811 47.0439 67.0285C48.9205 67.4759 50.8682 67.5393 52.77 67.2148C54.6717 66.8902 56.4882 66.1845 58.1102 65.14C60.4634 67.497 63.4194 69.1615 66.655 69.9513C69.8905 70.7412 73.281 70.626 76.4555 69.6185C79.6301 68.6109 82.4663 66.7497 84.6542 64.2384C86.842 61.7272 88.297 58.6627 88.8602 55.38V55.38L88.9202 55.06C89.0529 54.1561 89.1197 53.2437 89.1202 52.33C89.1202 52.06 89.1202 51.8 89.1202 51.53V50.98C89.1202 50.91 89.1202 50.84 89.1202 50.77C89.1202 50.54 89.1202 50.3 89.0402 50.07C89.0402 49.83 88.9702 49.58 88.9302 49.34C88.9302 49.24 88.9302 49.14 88.9302 49.05L89.0402 49C91.3133 48.1267 93.3193 46.6756 94.8602 44.79V44.79C95.0702 44.53 95.2802 44.27 95.4702 43.99C95.4754 43.967 95.4754 43.9431 95.4702 43.92C95.6585 43.6634 95.8321 43.3963 95.9902 43.12L96.0702 42.99C96.2202 42.73 96.3602 42.48 96.4902 42.21C96.5276 42.142 96.561 42.0719 96.5902 42C96.7102 41.76 96.8202 41.51 96.9302 41.26C96.9302 41.16 97.0002 41.06 97.0302 40.96C97.0602 40.86 97.2102 40.51 97.2902 40.27C97.3702 40.03 97.3602 40 97.4002 39.87C97.4402 39.74 97.5202 39.46 97.5702 39.25C97.6202 39.04 97.6402 38.9 97.6802 38.73C97.7202 38.56 97.7502 38.37 97.7802 38.19C97.8102 38.01 97.7802 37.96 97.7802 37.84C97.7802 37.72 97.7802 37.5 97.8502 37.33C97.9202 37.16 97.8502 37.18 97.8502 37.11C97.8502 37.04 97.8502 37 97.8502 36.95C97.8502 36.64 97.8502 36.32 97.8502 35.95C97.8502 35.58 97.8502 35.44 97.8502 35.19C97.8552 35.1468 97.8552 35.1032 97.8502 35.06C97.8502 34.84 97.8502 34.63 97.8502 34.42C97.8502 34.42 97.8502 34.36 97.8502 34.33C97.8502 34.1 97.7902 33.87 97.7502 33.64C97.2096 30.4665 95.5917 27.5762 93.1692 25.456C90.7467 23.3358 87.6674 22.1153 84.4502 22C84.5272 21.3094 84.564 20.6149 84.5602 19.92C84.5476 15.6203 83.1272 11.443 80.5162 8.02682C77.9051 4.61064 74.2471 2.14359 70.1015 1.00285C65.9558 -0.137893 61.5506 0.110468 57.5594 1.70995C53.5682 3.30944 50.2107 6.17202 48.0002 9.86004C46.4374 8.1489 44.4824 6.84291 42.3032 6.05436C40.1241 5.26581 37.7861 5.01828 35.4902 5.33306C33.1942 5.64784 31.0091 6.51551 29.1226 7.86147C27.2362 9.20743 25.7048 10.9914 24.6602 13.06C22.0959 12.3983 19.4142 12.3318 16.8203 12.8654C14.2263 13.399 11.7887 14.5187 9.69375 16.1388C7.59885 17.7589 5.90214 19.8367 4.73335 22.2131C3.56456 24.5895 2.95463 27.2017 2.9502 29.85C2.9502 30.11 2.9502 30.38 2.9502 30.64C2.9502 30.9 2.9502 31.04 2.9502 31.24C2.97236 31.2949 2.9891 31.3519 3.0002 31.41Z" fill="#082359"/>
</g>
</svg>
