<svg width="201" height="84" viewBox="0 0 201 84" fill="none" xmlns="http://www.w3.org/2000/svg">
<g style="mix-blend-mode:screen">
<path d="M200.17 47.8C200.17 47.64 200.17 47.48 200.22 47.32V47.01C200.22 46.91 200.22 46.81 200.22 46.7V46.2C200.22 46 200.22 45.79 200.22 45.59C200.22 45.39 200.22 45.25 200.22 45.08C200.22 44.91 200.22 44.69 200.15 44.49C200.08 44.29 200.15 44.3 200.1 44.2C200.1 44.13 200.1 44.06 200.1 43.99L199.98 43.41C199.93 43.25 199.89 43.08 199.84 42.92L199.66 42.36L199.48 41.89C199.4 41.71 199.33 41.53 199.24 41.35C199.15 41.17 199.1 41.05 199.02 40.9C198.94 40.75 198.84 40.55 198.74 40.38L198.48 39.95C198.37 39.78 198.26 39.62 198.14 39.46C198.02 39.3 197.95 39.19 197.85 39.06L197.46 38.59C197.35 38.47 197.25 38.34 197.13 38.22C197.01 38.1 196.84 37.93 196.69 37.79C196.54 37.65 196.46 37.56 196.34 37.45C196.22 37.34 196.01 37.18 195.84 37.05C195.67 36.92 195.6 36.85 195.47 36.76L194.9 36.39C194.78 36.3 194.65 36.22 194.52 36.14C194.39 36.06 194.08 35.9 193.85 35.79L193.51 35.61C193.16 35.45 192.8 35.31 192.43 35.18C189.686 34.2308 186.687 34.3414 184.02 35.49C182.9 32.7979 181.01 30.4963 178.587 28.874C176.164 27.2516 173.316 26.3805 170.4 26.37C170.668 23.2489 169.946 20.1226 168.337 17.435C166.727 14.7474 164.312 12.6349 161.435 11.3975C158.557 10.16 155.362 9.86039 152.305 10.5412C149.247 11.2219 146.481 12.8485 144.4 15.19C142.047 13.4568 139.238 12.4489 136.32 12.29C134.837 8.99123 132.202 6.34656 128.908 4.85172C125.615 3.35688 121.889 3.1145 118.43 4.17001C116.565 2.66497 114.363 1.63321 112.013 1.16265C109.662 0.692091 107.233 0.79667 104.932 1.46748C102.631 2.13829 100.526 3.35544 98.7964 5.01524C97.0671 6.67503 95.7647 8.72827 95.0001 11C95.0001 11.11 94.9401 11.21 94.9101 11.32C92.5154 9.59856 89.7749 8.41849 86.8786 7.8616C83.9824 7.30471 80.9997 7.38433 78.1373 8.09493C75.2749 8.80554 72.6012 10.1301 70.3017 11.9769C68.0022 13.8237 66.1318 16.1484 64.8201 18.79C63.2063 17.0233 61.1717 15.6938 58.9057 14.9251C56.6397 14.1565 54.216 13.9738 51.8604 14.394C49.5048 14.8142 47.2938 15.8237 45.4334 17.3285C43.5729 18.8332 42.1235 20.7843 41.2201 23C39.0555 21.4673 36.5634 20.4603 33.9415 20.0592C31.3197 19.6581 28.6405 19.8738 26.1166 20.6892C23.5928 21.5046 21.2938 22.8972 19.4023 24.7565C17.5107 26.6158 16.0788 28.8905 15.2201 31.4C15.2201 31.53 15.1401 31.66 15.1001 31.8C12.2805 31.1109 9.30521 31.5002 6.75775 32.8914C4.21029 34.2826 2.27452 36.5754 1.33013 39.32C1.16639 39.797 1.03607 40.2849 0.94013 40.78C0.94013 40.9 0.94013 41.01 0.87013 41.13C0.792174 41.5835 0.73876 42.0408 0.710127 42.5V42.58C0.659786 43.6417 0.757389 44.7052 1.00013 45.74V45.74C1.25538 46.822 1.66277 47.8624 2.21013 48.83C2.23961 48.8921 2.27301 48.9522 2.31013 49.01C2.43013 49.22 2.56013 49.42 2.69013 49.61L2.90013 49.92C3.02013 50.09 3.15013 50.25 3.28013 50.42L3.58013 50.77C3.6996 50.9194 3.82995 51.0598 3.97013 51.19L4.34012 51.56C4.47012 51.68 4.60013 51.81 4.73013 51.92L5.18013 52.29L5.58013 52.59L6.11013 52.94L6.50013 53.18C6.71013 53.3 6.93013 53.41 7.15013 53.52L7.49013 53.7C7.83013 53.8467 8.18013 53.9867 8.54013 54.12C10.3545 54.7454 12.2952 54.9137 14.1901 54.61C14.3784 56.1218 14.8815 57.5773 15.667 58.8827C16.4525 60.1881 17.5029 61.3143 18.7504 62.1887C19.9979 63.0631 21.4149 63.6663 22.9099 63.9593C24.405 64.2524 25.9448 64.2287 27.4301 63.89C27.5606 66.6218 28.4782 69.2575 30.0725 71.4797C31.6668 73.7018 33.8696 75.4155 36.4156 76.4143C38.9616 77.413 41.7421 77.6542 44.4221 77.1087C47.102 76.5633 49.5671 75.2545 51.5201 73.34C53.103 74.8484 55.0137 75.9698 57.1025 76.6162C59.1913 77.2626 61.4014 77.4165 63.5596 77.0658C65.7178 76.7151 67.7655 75.8695 69.5421 74.595C71.3188 73.3206 72.7762 71.652 73.8001 69.72C74.3223 71.0038 75.1207 72.1569 76.1387 73.0973C77.1567 74.0378 78.3693 74.7426 79.6903 75.1616C81.0114 75.5806 82.4085 75.7036 83.7824 75.5219C85.1564 75.3401 86.4735 74.8581 87.6401 74.11C88.6731 76.618 90.3719 78.796 92.553 80.4084C94.7341 82.0209 97.3144 83.0065 100.015 83.2588C102.716 83.511 105.434 83.0203 107.876 81.8396C110.318 80.659 112.391 78.8333 113.87 76.56C114.237 76.2322 114.571 75.8707 114.87 75.48C115.03 75.26 115.18 75.02 115.32 74.79C116.505 77.5579 118.501 79.9015 121.045 81.5117C123.59 83.1219 126.562 83.923 129.571 83.8092C132.58 83.6955 135.483 82.6724 137.898 80.8747C140.314 79.0771 142.127 76.5894 143.1 73.74C143.358 72.9664 143.555 72.1741 143.69 71.37C143.94 71.48 144.19 71.59 144.45 71.68C146.304 72.3221 148.267 72.5925 150.226 72.4756C152.184 72.3586 154.101 71.8567 155.866 70.9986C157.63 70.1404 159.208 68.9428 160.51 67.4743C161.811 66.0057 162.81 64.295 163.45 62.44C164.772 64.0546 166.502 65.2865 168.46 66.0083C170.418 66.7301 172.533 66.9155 174.587 66.5453C176.641 66.1752 178.559 65.2629 180.141 63.9029C181.724 62.5429 182.915 60.7846 183.59 58.81C183.77 58.2173 183.907 57.6124 184 57C184.25 57.11 184.5 57.22 184.76 57.31C186.217 57.8131 187.759 58.0241 189.298 57.931C190.836 57.8379 192.341 57.4424 193.727 56.7672C195.112 56.092 196.351 55.1504 197.373 53.9961C198.394 52.8418 199.178 51.4975 199.68 50.04C199.827 49.5967 199.95 49.1461 200.05 48.69L200.11 48.33C200.11 48.16 200.15 48 200.17 47.8Z" fill="#082359"/>
</g>
</svg>
