<svg width="158" height="93" viewBox="0 0 158 93" fill="none" xmlns="http://www.w3.org/2000/svg">
<g style="mix-blend-mode:screen">
<path d="M157.6 44.52C157.605 44.46 157.605 44.3998 157.6 44.3399C157.6 43.9299 157.49 43.5199 157.41 43.1199C157.406 43.0967 157.406 43.0732 157.41 43.0499C157.41 42.8799 157.32 42.7199 157.28 42.5599C157.097 41.8492 156.86 41.1538 156.57 40.4799V40.4799C155.764 38.663 154.569 37.045 153.07 35.74L152.92 35.6L152.26 35.0799L151.92 34.8299C151.72 34.6899 151.51 34.5599 151.3 34.4299L150.84 34.1499L150.25 33.8299L149.7 33.57L149.13 33.32L148.49 33.0899L147.94 32.91L147.22 32.7299C147.05 32.7299 146.88 32.6399 146.7 32.6099L145.85 32.4799L145.41 32.4199C144.97 32.4199 144.53 32.3599 144.08 32.3599C143.615 32.3647 143.151 32.3948 142.69 32.4499L142.14 32.52C141.91 32.52 141.69 32.5999 141.47 32.6399C140.168 32.898 138.908 33.339 137.73 33.9499C136.578 28.7989 133.588 24.2445 129.32 21.1399L129 20.8999C128.686 20.6799 128.353 20.4699 128 20.2699L127.49 19.9499C127.19 19.7699 126.89 19.5999 126.58 19.4399L125.93 19.1099L125.06 18.71L124.29 18.3999C124.01 18.2899 123.73 18.1799 123.45 18.0899L122.57 17.8099L121.77 17.5899C121.44 17.4999 121.11 17.4399 120.77 17.3699C120.43 17.2999 120.28 17.2599 120.03 17.2199C119.78 17.1799 119.24 17.11 118.85 17.07L118.23 16.99C117.62 16.94 117 16.9199 116.38 16.9199C114.475 16.9232 112.579 17.1753 110.74 17.6699C109.941 13.9175 108.166 10.4422 105.594 7.59527C103.023 4.74831 99.7452 2.63047 96.0929 1.45566C92.4407 0.28086 88.5431 0.0907077 84.7938 0.90441C81.0446 1.71811 77.5764 3.50685 74.7398 6.08994C71.7386 4.16533 68.2743 3.08501 64.7111 2.96256C61.1479 2.84011 57.6176 3.68007 54.4914 5.39411C51.3652 7.10815 48.7586 9.63294 46.9458 12.7029C45.133 15.7729 44.1809 19.2747 44.1898 22.8399C44.1969 23.8039 44.2704 24.7661 44.4098 25.7199C43.7198 25.6699 43.0198 25.6299 42.3198 25.6399C36.8981 25.6391 31.607 27.3038 27.1624 30.4087C22.7179 33.5137 19.3344 37.909 17.4698 42.9999C17.1898 42.9999 16.9198 42.9999 16.6398 42.9999C16.1118 42.9997 15.5843 43.0298 15.0598 43.0899C14.8853 43.1042 14.7118 43.1275 14.5398 43.16C14.1998 43.16 13.8598 43.2499 13.5398 43.3099L12.9298 43.4499L12.0498 43.6799L11.4198 43.88L10.6198 44.1799C10.4098 44.2599 10.1998 44.3499 9.99977 44.4499L9.26977 44.7999C9.05977 44.9099 8.84977 45.01 8.63977 45.13C8.42977 45.25 8.19977 45.3899 7.98977 45.5299C7.77977 45.6699 7.56977 45.7899 7.36977 45.9299C7.16977 46.0699 6.99977 46.1999 6.81977 46.3399L6.17977 46.8299L6.02977 46.9699C5.45544 47.4709 4.9143 48.0087 4.40977 48.5799L4.18977 48.82C3.96977 49.09 3.76977 49.3599 3.55977 49.6399C3.47977 49.7499 3.38977 49.8599 3.30977 49.9799C3.11977 50.2599 2.93977 50.5399 2.75977 50.8299C2.67977 50.9599 2.59977 51.08 2.52977 51.21C2.3631 51.4966 2.2031 51.7966 2.04977 52.1099L1.86977 52.49C1.71977 52.81 1.57977 53.13 1.44977 53.49C1.44977 53.61 1.36977 53.7399 1.31977 53.8599C1.19977 54.1999 1.07977 54.5499 0.979767 54.8599C0.961098 54.9445 0.937729 55.028 0.909768 55.1099V55.2499C0.819768 55.6099 0.729768 55.9599 0.659768 56.3299C0.659768 56.3299 0.659768 56.3899 0.659768 56.4199C0.659768 56.4499 0.599768 56.7699 0.579768 56.9499C0.559768 57.1299 0.489767 57.5299 0.459767 57.8299C0.406523 58.3381 0.38315 58.849 0.389767 59.3599C0.39476 62.327 1.20756 65.2368 2.74094 67.7769C4.27432 70.3171 6.47041 72.3917 9.09356 73.7784C11.7167 75.165 14.6679 75.8112 17.6305 75.6476C20.5931 75.484 23.4552 74.5169 25.9098 72.85C29.1701 75.4477 32.9995 77.2361 37.0842 78.0687C41.1689 78.9013 45.3928 78.7544 49.4098 77.64C51.1345 82.407 54.4674 86.4235 58.8346 88.9978C63.2018 91.5722 68.3299 92.5432 73.3359 91.7438C78.342 90.9444 82.9126 88.4246 86.2609 84.6182C89.6091 80.8118 91.5254 75.9571 91.6798 70.8899C94.1099 70.7937 96.5065 70.29 98.7698 69.3999C100.725 74.0397 104.226 77.8592 108.679 80.2093C113.132 82.5594 118.261 83.2949 123.195 82.291C128.129 81.287 132.562 78.6055 135.743 74.7022C138.923 70.799 140.653 65.9148 140.64 60.88C140.64 60.3 140.64 59.73 140.56 59.16C141.728 59.4726 142.931 59.6339 144.14 59.6399C146.049 59.6371 147.937 59.2324 149.68 58.4522C151.423 57.672 152.982 56.5338 154.256 55.1115C155.531 53.6892 156.491 52.0147 157.076 50.1968C157.66 48.3789 157.856 46.4584 157.65 44.5599L157.6 44.52Z" fill="#082359"/>
</g>
</svg>
