<svg width="739" height="817" viewBox="0 0 739 817" fill="none" xmlns="http://www.w3.org/2000/svg">
<circle cx="268" cy="84" r="2" fill="#0A46BF" fill-opacity="0.5"/>
<circle cx="34" cy="12" r="2" fill="#0A46BF" fill-opacity="0.5"/>
<circle cx="85" cy="2" r="2" fill="#0A46BF"/>
<circle cx="251" cy="65" r="2" fill="#0A46BF" fill-opacity="0.5"/>
<circle cx="237.5" cy="112.5" r="3.5" fill="#0A46BF" fill-opacity="0.5"/>
<circle cx="3.5" cy="40.5" r="3.5" fill="#0A46BF" fill-opacity="0.5"/>
<circle cx="54.5" cy="36.5" r="3.5" fill="#0A46BF" fill-opacity="0.5"/>
<circle cx="220.5" cy="99.5" r="3.5" fill="#0A46BF" fill-opacity="0.5"/>
<circle cx="419" cy="654" r="2" fill="#0A46BF" fill-opacity="0.5"/>
<circle cx="259" cy="675" r="2" fill="#0A46BF" fill-opacity="0.5"/>
<circle cx="310" cy="665" r="2" fill="#0A46BF" fill-opacity="0.5"/>
<circle cx="402" cy="635" r="2" fill="#0A46BF" fill-opacity="0.5"/>
<circle cx="387" cy="681" r="2" fill="#0A46BF" fill-opacity="0.5"/>
<circle cx="260" cy="702" r="2" fill="#0A46BF" fill-opacity="0.5"/>
<circle cx="278" cy="698" r="2" fill="#0A46BF" fill-opacity="0.5"/>
<circle cx="370" cy="668" r="2" fill="#0A46BF" fill-opacity="0.5"/>
<circle cx="676" cy="298" r="2" fill="#0A46BF" fill-opacity="0.5"/>
<circle cx="516" cy="319" r="2" fill="#0A46BF" fill-opacity="0.5"/>
<circle cx="567" cy="309" r="2" fill="#0A46BF" fill-opacity="0.5"/>
<circle cx="659" cy="279" r="2" fill="#0A46BF" fill-opacity="0.5"/>
<circle cx="644" cy="325" r="2" fill="#0A46BF" fill-opacity="0.5"/>
<circle cx="517" cy="346" r="2" fill="#0A46BF" fill-opacity="0.5"/>
<circle cx="535" cy="342" r="2" fill="#0A46BF" fill-opacity="0.5"/>
<circle cx="627" cy="312" r="2" fill="#0A46BF" fill-opacity="0.5"/>
<circle cx="270" cy="527" r="2" fill="#0A46BF" fill-opacity="0.5"/>
<circle cx="110" cy="548" r="2" fill="#0A46BF" fill-opacity="0.5"/>
<circle cx="161" cy="538" r="2" fill="#0A46BF" fill-opacity="0.5"/>
<circle cx="253" cy="508" r="2" fill="#0A46BF" fill-opacity="0.5"/>
<circle cx="238" cy="554" r="2" fill="#0A46BF" fill-opacity="0.5"/>
<circle cx="111" cy="575" r="2" fill="#0A46BF" fill-opacity="0.5"/>
<circle cx="129" cy="571" r="2" fill="#0A46BF" fill-opacity="0.5"/>
<circle cx="221" cy="541" r="2" fill="#0A46BF" fill-opacity="0.5"/>
<circle cx="737" cy="634" r="2" fill="#0A46BF" fill-opacity="0.5"/>
<circle cx="577" cy="655" r="2" fill="#0A46BF" fill-opacity="0.5"/>
<circle cx="628" cy="645" r="2" fill="#0A46BF" fill-opacity="0.5"/>
<circle cx="720" cy="615" r="2" fill="#0A46BF" fill-opacity="0.5"/>
<circle cx="705" cy="661" r="2" fill="#0A46BF" fill-opacity="0.5"/>
<circle cx="578" cy="682" r="2" fill="#0A46BF" fill-opacity="0.5"/>
<circle cx="596" cy="678" r="2" fill="#0A46BF" fill-opacity="0.5"/>
<circle cx="688" cy="648" r="2" fill="#0A46BF" fill-opacity="0.5"/>
<circle cx="267" cy="767" r="2" fill="#0A46BF" fill-opacity="0.5"/>
<circle cx="107" cy="788" r="2" fill="#0A46BF" fill-opacity="0.5"/>
<circle cx="158" cy="778" r="2" fill="#0A46BF" fill-opacity="0.5"/>
<circle cx="250" cy="748" r="2" fill="#0A46BF" fill-opacity="0.5"/>
<circle cx="235" cy="794" r="2" fill="#0A46BF" fill-opacity="0.5"/>
<circle cx="108" cy="815" r="2" fill="#0A46BF" fill-opacity="0.5"/>
<circle cx="126" cy="811" r="2" fill="#0A46BF" fill-opacity="0.5"/>
<circle cx="218" cy="781" r="2" fill="#0A46BF" fill-opacity="0.5"/>
</svg>
