<svg width="247" height="64" viewBox="0 0 247 64" fill="none" xmlns="http://www.w3.org/2000/svg">
<path fill-rule="evenodd" clip-rule="evenodd" d="M11.7547 0H46.3021H58.2243V54.4719H89V59.1845V64L46.3021 64L28.5472 64L19.3113 64L11.5524 64C22.3347 64 31.4227 62.6131 37.3375 57.0401C43.2966 51.4235 46.2848 43.543 46.3021 33.3985V33.2215C46.2848 23.1368 43.2966 15.316 37.3375 9.75916C31.4227 4.18613 22.537 0 11.7547 0ZM34.2877 33.3097C34.2877 48.4109 26.7093 55.9614 11.5524 55.9614H0V10.8378H11.5524C26.7093 10.8378 34.2877 18.3285 34.2877 33.3097ZM17.0157 32C18.6298 27.8327 17.1549 23.2196 13.708 20.7225C14.489 20.8172 15.271 21.0115 16.0378 21.3125C20.9444 23.2386 23.3711 28.8044 21.4579 33.7441C19.5448 38.6838 14.0162 41.1269 9.1096 39.2008C8.34245 38.8997 7.63593 38.5096 6.99713 38.0468C11.2137 38.5583 15.4016 36.1678 17.0157 32Z" fill="#082359"/>
<path d="M89 21.7097H96.5785C99.9532 21.7097 102.566 22.6263 104.417 24.4597C106.288 26.293 107.223 28.8754 107.223 32.207C107.223 35.5582 106.288 38.1604 104.417 40.0134C102.566 41.8468 99.9532 42.7634 96.5785 42.7634H89V21.7097ZM96.3471 39.6586C101.091 39.6586 103.463 37.1747 103.463 32.207C103.463 27.2787 101.091 24.8145 96.3471 24.8145H92.7314V39.6586H96.3471Z" fill="#082359"/>
<path d="M118.641 27.4758C119.2 27.4758 119.682 27.5547 120.087 27.7124L120.058 31.0833C119.441 30.8271 118.805 30.6989 118.149 30.6989C116.915 30.6989 115.97 31.0636 115.314 31.793C114.678 32.5224 114.36 33.4884 114.36 34.6909V42.7634H110.773V32.0591C110.773 30.4821 110.696 29.0726 110.541 27.8306H113.926L114.215 30.4624C114.581 29.4964 115.16 28.7572 115.951 28.2446C116.741 27.7321 117.638 27.4758 118.641 27.4758Z" fill="#082359"/>
<path d="M134.603 35.4892H124.537C124.614 37.086 125 38.2688 125.694 39.0376C126.407 39.7867 127.458 40.1613 128.847 40.1613C130.447 40.1613 131.932 39.629 133.301 38.5645L134.343 41.1075C133.648 41.6792 132.79 42.1425 131.768 42.4973C130.765 42.8324 129.743 43 128.702 43C126.311 43 124.431 42.31 123.062 40.9301C121.692 39.5502 121.008 37.6577 121.008 35.2527C121.008 33.7348 121.307 32.3844 121.905 31.2016C122.502 30.0188 123.341 29.1021 124.421 28.4516C125.501 27.7814 126.725 27.4462 128.095 27.4462C130.1 27.4462 131.681 28.1165 132.838 29.457C134.015 30.7778 134.603 32.6013 134.603 34.9274V35.4892ZM128.181 30.1075C127.217 30.1075 126.427 30.4032 125.809 30.9946C125.212 31.5663 124.826 32.4041 124.652 33.5081H131.45C131.334 32.3844 130.997 31.5367 130.438 30.9651C129.898 30.3934 129.146 30.1075 128.181 30.1075Z" fill="#082359"/>
<path d="M151.636 27.8306V42.7634H148.078V40.3683C147.634 41.1962 146.998 41.8468 146.169 42.3199C145.34 42.7733 144.395 43 143.334 43C142.061 43 140.933 42.6846 139.95 42.0538C138.966 41.4229 138.205 40.526 137.665 39.3629C137.125 38.1998 136.855 36.8495 136.855 35.3118C136.855 33.7742 137.125 32.414 137.665 31.2312C138.224 30.0287 138.995 29.1021 139.979 28.4516C140.962 27.7814 142.081 27.4462 143.334 27.4462C144.395 27.4462 145.34 27.6828 146.169 28.1559C146.998 28.6093 147.634 29.25 148.078 30.078V27.8306H151.636ZM144.318 40.1021C145.513 40.1021 146.439 39.6783 147.094 38.8306C147.75 37.983 148.078 36.7903 148.078 35.2527C148.078 33.6756 147.75 32.4633 147.094 31.6156C146.439 30.7679 145.504 30.3441 144.289 30.3441C143.093 30.3441 142.158 30.7876 141.483 31.6747C140.827 32.5421 140.499 33.7545 140.499 35.3118C140.499 36.8495 140.827 38.0323 141.483 38.8602C142.158 39.6882 143.103 40.1021 144.318 40.1021Z" fill="#082359"/>
<path d="M172.813 27.4462C174.472 27.4462 175.706 27.9588 176.516 28.9839C177.326 29.9892 177.731 31.5269 177.731 33.5968V42.7634H174.115V33.7151C174.115 32.5323 173.922 31.6846 173.537 31.172C173.17 30.6398 172.553 30.3737 171.685 30.3737C170.683 30.3737 169.892 30.7384 169.313 31.4677C168.754 32.1774 168.475 33.1631 168.475 34.4247V42.7634H164.859V33.7151C164.859 32.552 164.656 31.7043 164.251 31.172C163.866 30.6398 163.249 30.3737 162.4 30.3737C161.397 30.3737 160.607 30.7384 160.028 31.4677C159.45 32.1774 159.161 33.1631 159.161 34.4247V42.7634H155.574V32.0591C155.574 30.4821 155.497 29.0726 155.342 27.8306H158.727L158.987 30.1962C159.411 29.3091 160.019 28.629 160.809 28.1559C161.619 27.6828 162.545 27.4462 163.586 27.4462C165.823 27.4462 167.279 28.3925 167.954 30.2849C168.417 29.3979 169.072 28.7079 169.921 28.2151C170.789 27.7025 171.753 27.4462 172.813 27.4462Z" fill="#082359"/>
<path d="M181.85 21.7097H185.582V39.629H195.214V42.7634H181.85V21.7097Z" fill="#082359"/>
<path d="M211.662 27.8306V42.7634H208.104V40.3683C207.661 41.1962 207.024 41.8468 206.195 42.3199C205.366 42.7733 204.421 43 203.36 43C202.088 43 200.96 42.6846 199.976 42.0538C198.993 41.4229 198.231 40.526 197.691 39.3629C197.151 38.1998 196.881 36.8495 196.881 35.3118C196.881 33.7742 197.151 32.414 197.691 31.2312C198.25 30.0287 199.022 29.1021 200.005 28.4516C200.989 27.7814 202.107 27.4462 203.36 27.4462C204.421 27.4462 205.366 27.6828 206.195 28.1559C207.024 28.6093 207.661 29.25 208.104 30.078V27.8306H211.662ZM204.344 40.1021C205.54 40.1021 206.465 39.6783 207.121 38.8306C207.776 37.983 208.104 36.7903 208.104 35.2527C208.104 33.6756 207.776 32.4633 207.121 31.6156C206.465 30.7679 205.53 30.3441 204.315 30.3441C203.119 30.3441 202.184 30.7876 201.509 31.6747C200.854 32.5421 200.526 33.7545 200.526 35.3118C200.526 36.8495 200.854 38.0323 201.509 38.8602C202.184 39.6882 203.129 40.1021 204.344 40.1021Z" fill="#082359"/>
<path d="M223.96 27.4462C227.45 27.4462 229.195 29.4964 229.195 33.5968V42.7634H225.579V33.7742C225.579 32.5914 225.358 31.7339 224.914 31.2016C224.471 30.6496 223.786 30.3737 222.86 30.3737C221.761 30.3737 220.874 30.7384 220.199 31.4677C219.524 32.1774 219.187 33.1237 219.187 34.3065V42.7634H215.6V32.0591C215.6 30.4821 215.523 29.0726 215.369 27.8306H218.753L219.013 30.2849C219.515 29.3781 220.19 28.6783 221.038 28.1855C221.906 27.6927 222.88 27.4462 223.96 27.4462Z" fill="#082359"/>
<path d="M247 21V42.7634H243.442V40.3683C242.999 41.1962 242.362 41.8468 241.533 42.3199C240.704 42.7733 239.759 43 238.698 43C237.445 43 236.326 42.6747 235.343 42.0242C234.359 41.3737 233.588 40.457 233.029 39.2742C232.489 38.0717 232.219 36.7016 232.219 35.164C232.219 33.6263 232.489 32.276 233.029 31.1129C233.569 29.9498 234.331 29.0529 235.314 28.422C236.298 27.7715 237.426 27.4462 238.698 27.4462C239.74 27.4462 240.665 27.6729 241.475 28.1263C242.304 28.56 242.941 29.181 243.384 29.9892V21H247ZM239.653 40.1021C240.848 40.1021 241.774 39.6783 242.43 38.8306C243.105 37.983 243.442 36.7805 243.442 35.2231C243.442 33.6658 243.114 32.4633 242.459 31.6156C241.803 30.7679 240.877 30.3441 239.682 30.3441C238.467 30.3441 237.522 30.7679 236.847 31.6156C236.191 32.4435 235.864 33.6263 235.864 35.164C235.864 36.7213 236.191 37.9337 236.847 38.8011C237.522 39.6685 238.457 40.1021 239.653 40.1021Z" fill="#082359"/>
</svg>
