<svg width="157" height="40" viewBox="0 0 157 40" fill="none" xmlns="http://www.w3.org/2000/svg">
<path fill-rule="evenodd" clip-rule="evenodd" d="M7.39623 0H29.1339H36.6355V34.0449H56V36.9903V40L29.1339 40L17.9623 40L12.1509 40L7.26896 40C14.0533 40 19.7716 39.1332 23.4933 35.65C27.2428 32.1397 29.123 27.2143 29.1339 20.8741V20.7634C29.123 14.4605 27.2428 9.5725 23.4933 6.09948C19.7716 2.61633 14.1806 0 7.39623 0ZM21.5743 20.8186C21.5743 30.2568 16.8058 34.9759 7.26896 34.9759H0V6.77363H7.26896C16.8058 6.77363 21.5743 11.4553 21.5743 20.8186ZM10.7065 20C11.7221 17.3954 10.7941 14.5123 8.62529 12.9516C9.11669 13.0108 9.60872 13.1322 10.0912 13.3203C13.1785 14.5241 14.7054 18.0027 13.5016 21.0901C12.2978 24.1774 8.81921 25.7043 5.73189 24.5005C5.24919 24.3123 4.80463 24.0685 4.40269 23.7792C7.0558 24.0989 9.69086 22.6049 10.7065 20Z" fill="#D9D1B8"/>
<path d="M57.386 13.684H62.102C64.202 13.684 65.828 14.242 66.98 15.358C68.144 16.474 68.726 18.046 68.726 20.074C68.726 22.114 68.144 23.698 66.98 24.826C65.828 25.942 64.202 26.5 62.102 26.5H57.386V13.684ZM61.958 24.61C64.91 24.61 66.386 23.098 66.386 20.074C66.386 17.074 64.91 15.574 61.958 15.574H59.708V24.61H61.958ZM75.8309 17.194C76.1789 17.194 76.4789 17.242 76.7309 17.338L76.7129 19.39C76.3289 19.234 75.9329 19.156 75.5249 19.156C74.7569 19.156 74.1689 19.378 73.7609 19.822C73.3649 20.266 73.1669 20.854 73.1669 21.586V26.5H70.9349V19.984C70.9349 19.024 70.8869 18.166 70.7909 17.41H72.8969L73.0769 19.012C73.3049 18.424 73.6649 17.974 74.1569 17.662C74.6489 17.35 75.2069 17.194 75.8309 17.194ZM85.764 22.072H79.5C79.548 23.044 79.788 23.764 80.22 24.232C80.664 24.688 81.318 24.916 82.182 24.916C83.178 24.916 84.102 24.592 84.954 23.944L85.602 25.492C85.17 25.84 84.636 26.122 84 26.338C83.376 26.542 82.74 26.644 82.092 26.644C80.604 26.644 79.434 26.224 78.582 25.384C77.73 24.544 77.304 23.392 77.304 21.928C77.304 21.004 77.49 20.182 77.862 19.462C78.234 18.742 78.756 18.184 79.428 17.788C80.1 17.38 80.862 17.176 81.714 17.176C82.962 17.176 83.946 17.584 84.666 18.4C85.398 19.204 85.764 20.314 85.764 21.73V22.072ZM81.768 18.796C81.168 18.796 80.676 18.976 80.292 19.336C79.92 19.684 79.68 20.194 79.572 20.866H83.802C83.73 20.182 83.52 19.666 83.172 19.318C82.836 18.97 82.368 18.796 81.768 18.796ZM96.3633 17.41V26.5H94.1493V25.042C93.8733 25.546 93.4773 25.942 92.9613 26.23C92.4453 26.506 91.8573 26.644 91.1973 26.644C90.4053 26.644 89.7033 26.452 89.0913 26.068C88.4793 25.684 88.0053 25.138 87.6693 24.43C87.3333 23.722 87.1653 22.9 87.1653 21.964C87.1653 21.028 87.3333 20.2 87.6693 19.48C88.0173 18.748 88.4973 18.184 89.1093 17.788C89.7213 17.38 90.4173 17.176 91.1973 17.176C91.8573 17.176 92.4453 17.32 92.9613 17.608C93.4773 17.884 93.8733 18.274 94.1493 18.778V17.41H96.3633ZM91.8093 24.88C92.5533 24.88 93.1293 24.622 93.5373 24.106C93.9453 23.59 94.1493 22.864 94.1493 21.928C94.1493 20.968 93.9453 20.23 93.5373 19.714C93.1293 19.198 92.5473 18.94 91.7913 18.94C91.0473 18.94 90.4653 19.21 90.0453 19.75C89.6373 20.278 89.4333 21.016 89.4333 21.964C89.4333 22.9 89.6373 23.62 90.0453 24.124C90.4653 24.628 91.0533 24.88 91.8093 24.88ZM109.542 17.176C110.574 17.176 111.342 17.488 111.846 18.112C112.35 18.724 112.602 19.66 112.602 20.92V26.5H110.352V20.992C110.352 20.272 110.232 19.756 109.992 19.444C109.764 19.12 109.38 18.958 108.84 18.958C108.216 18.958 107.724 19.18 107.364 19.624C107.016 20.056 106.842 20.656 106.842 21.424V26.5H104.592V20.992C104.592 20.284 104.466 19.768 104.214 19.444C103.974 19.12 103.59 18.958 103.062 18.958C102.438 18.958 101.946 19.18 101.586 19.624C101.226 20.056 101.046 20.656 101.046 21.424V26.5H98.8138V19.984C98.8138 19.024 98.7658 18.166 98.6698 17.41H100.776L100.938 18.85C101.202 18.31 101.58 17.896 102.072 17.608C102.576 17.32 103.152 17.176 103.8 17.176C105.192 17.176 106.098 17.752 106.518 18.904C106.806 18.364 107.214 17.944 107.742 17.644C108.282 17.332 108.882 17.176 109.542 17.176ZM115.165 13.684H117.487V24.592H123.481V26.5H115.165V13.684ZM133.717 17.41V26.5H131.503V25.042C131.227 25.546 130.831 25.942 130.315 26.23C129.799 26.506 129.211 26.644 128.551 26.644C127.759 26.644 127.057 26.452 126.445 26.068C125.833 25.684 125.359 25.138 125.023 24.43C124.687 23.722 124.519 22.9 124.519 21.964C124.519 21.028 124.687 20.2 125.023 19.48C125.371 18.748 125.851 18.184 126.463 17.788C127.075 17.38 127.771 17.176 128.551 17.176C129.211 17.176 129.799 17.32 130.315 17.608C130.831 17.884 131.227 18.274 131.503 18.778V17.41H133.717ZM129.163 24.88C129.907 24.88 130.483 24.622 130.891 24.106C131.299 23.59 131.503 22.864 131.503 21.928C131.503 20.968 131.299 20.23 130.891 19.714C130.483 19.198 129.901 18.94 129.145 18.94C128.401 18.94 127.819 19.21 127.399 19.75C126.991 20.278 126.787 21.016 126.787 21.964C126.787 22.9 126.991 23.62 127.399 24.124C127.819 24.628 128.407 24.88 129.163 24.88ZM141.369 17.176C143.541 17.176 144.627 18.424 144.627 20.92V26.5H142.377V21.028C142.377 20.308 142.239 19.786 141.963 19.462C141.687 19.126 141.261 18.958 140.685 18.958C140.001 18.958 139.449 19.18 139.029 19.624C138.609 20.056 138.399 20.632 138.399 21.352V26.5H136.167V19.984C136.167 19.024 136.119 18.166 136.023 17.41H138.129L138.291 18.904C138.603 18.352 139.023 17.926 139.551 17.626C140.091 17.326 140.697 17.176 141.369 17.176ZM155.707 13.252V26.5H153.493V25.042C153.217 25.546 152.821 25.942 152.305 26.23C151.789 26.506 151.201 26.644 150.541 26.644C149.761 26.644 149.065 26.446 148.453 26.05C147.841 25.654 147.361 25.096 147.013 24.376C146.677 23.644 146.509 22.81 146.509 21.874C146.509 20.938 146.677 20.116 147.013 19.408C147.349 18.7 147.823 18.154 148.435 17.77C149.047 17.374 149.749 17.176 150.541 17.176C151.189 17.176 151.765 17.314 152.269 17.59C152.785 17.854 153.181 18.232 153.457 18.724V13.252H155.707ZM151.135 24.88C151.879 24.88 152.455 24.622 152.863 24.106C153.283 23.59 153.493 22.858 153.493 21.91C153.493 20.962 153.289 20.23 152.881 19.714C152.473 19.198 151.897 18.94 151.153 18.94C150.397 18.94 149.809 19.198 149.389 19.714C148.981 20.218 148.777 20.938 148.777 21.874C148.777 22.822 148.981 23.56 149.389 24.088C149.809 24.616 150.391 24.88 151.135 24.88Z" fill="#D9D1B8"/>
</svg>
