<svg width="213" height="212" viewBox="0 0 213 212" fill="none" xmlns="http://www.w3.org/2000/svg">
<g style="mix-blend-mode:screen">
<path d="M130.46 169.82C109.963 169.823 90.1108 162.653 74.3452 149.554C58.5797 136.455 47.8946 118.252 44.1423 98.1013C40.39 77.9504 43.807 57.1217 53.8009 39.2259C63.7949 21.3301 79.7358 7.49544 98.8602 0.120117C78.6462 1.6354 59.2918 8.92031 43.0956 21.1097C26.8993 33.2991 14.5417 49.8807 7.49033 68.8854C0.438966 87.8901 -1.00985 108.519 3.31593 128.323C7.64172 148.127 17.5604 166.273 31.8939 180.606C46.2274 194.94 64.3736 204.859 84.1773 209.184C103.981 213.51 124.61 212.061 143.615 205.01C162.62 197.959 179.201 185.601 191.391 169.405C203.58 153.208 210.865 133.854 212.38 113.64C205.994 130.18 194.75 144.399 180.128 154.427C165.506 164.455 148.19 169.821 130.46 169.82V169.82Z" fill="#082359"/>
</g>
</svg>
